<svg viewBox="0 0 60 60" xmlns="http://www.w3.org/2000/svg" class="css-almnx"><circle cx="30" cy="30" r="30" class="css-1585vcc"/><path fill-rule="evenodd" clip-rule="evenodd" d="M17.594 31.225l4.505-7.913v-.001c-.66-.2-2.79-.209-3.362 0L14.15 31.46l5.562 7.697c.603.21 2.883.199 3.597 0l-5.716-7.932zm8.633-7.914l-1.57 2.714h1.589v13.13c.493.207 2.423.207 2.916 0V23.304c-.495-.198-2.48-.195-2.935.007zM48.101 36.39l-.037-.013c-.346-.12-1.066-.367-1.066-3.201v-7.15h3.022c.207-.46.207-2.255 0-2.713H47v-3.733c-.263-.12-1.214-.12-1.463.003l-3.733 6.445h2.279v7.148c0 1.54 0 5.633 3.743 5.935.091.01.282.026.543.026 1.313 0 2.473-.379 3.45-1.125-.096-.427-.887-1.796-1.218-2.112-.973.742-2.027.659-2.5.49zM10.227 17.396v21.758c.494.207 2.423.207 2.916 0V17.397c-.493-.207-2.422-.207-2.916 0zm17.478-.154a1.838 1.838 0 00-1.837 1.834 1.838 1.838 0 003.675 0 1.838 1.838 0 00-1.838-1.834zm10.432 19.145c.474.17 1.527.253 2.5-.49.332.317 1.122 1.686 1.217 2.113-.975.746-2.136 1.125-3.448 1.125-.262 0-.453-.016-.544-.026-3.743-.302-3.743-4.395-3.743-5.935v-7.148h-2.278l3.732-6.445c.25-.122 1.2-.123 1.464-.003v3.733h3.019c.207.458.207 2.253 0 2.713h-3.021v7.15c0 2.834.72 3.082 1.065 3.2l.037.013z" fill="#FFFFFF"/></svg>